<svg width="30" height="86" viewBox="0 0 30 86" fill="none" xmlns="http://www.w3.org/2000/svg">
<path d="M13 84L13 86L17 86L17 84L13 84ZM16.4142 0.585786C15.6332 -0.195262 14.3668 -0.195262 13.5858 0.585786L0.857867 13.3137C0.0768188 14.0948 0.0768188 15.3611 0.857867 16.1421C1.63892 16.9232 2.90525 16.9232 3.68629 16.1421L15 4.82843L26.3137 16.1421C27.0948 16.9232 28.3611 16.9232 29.1421 16.1421C29.9232 15.3611 29.9232 14.0948 29.1421 13.3137L16.4142 0.585786ZM17 84L17 2L13 2L13 84L17 84Z" fill="black"/>
</svg>
